PathFileType  4	(X/Y/Z) C:\Users\wagnerel85475\Documents\Thesis\opencap-core\Data\3375ffbc-daeb-4a43-b4f7-ac9899cd4c71\MarkerData\PreAugmentation
DataRate	CameraRate	NumFrames	NumMarkers	Units	OrigDataRate	OrigDataStartFrame	OrigNumFrames
60.0	60.0	19	20	m	60.0	74	585
Frame#	Time	Neck			RShoulder			RElbow			RWrist			LShoulder			LElbow			LWrist			midHip			RHip			RKnee			RAnkle			LHip			LKnee			LAnkle			LBigToe			LSmallToe			LHeel			RBigToe			RSmallToe			RHeel			
		X1	Y1	Z1	X2	Y2	Z2	X3	Y3	Z3	X4	Y4	Z4	X5	Y5	Z5	X6	Y6	Z6	X7	Y7	Z7	X8	Y8	Z8	X9	Y9	Z9	X10	Y10	Z10	X11	Y11	Z11	X12	Y12	Z12	X13	Y13	Z13	X14	Y14	Z14	X15	Y15	Z15	X16	Y16	Z16	X17	Y17	Z17	X18	Y18	Z18	X19	Y19	Z19	X20	Y20	Z20	

74	1.2166667	0.2627100	1.7976400	-0.1331500	0.2699900	1.8021100	0.0593000	0.2296400	1.5120400	0.1316500	0.3042600	1.2246300	0.1948100	0.2755800	1.7978700	-0.3175700	0.2042400	1.5079400	-0.3744800	0.2719500	1.2170900	-0.4287500	0.3046800	1.2693100	-0.1248800	0.2741700	1.2687800	-0.0094600	0.2096100	0.7807300	-0.0295600	0.1848300	0.2707100	-0.0302800	0.3093500	1.2704600	-0.2521500	0.2307500	0.7931000	-0.2041500	0.2015200	0.2801400	-0.2084900	0.3631700	0.1982100	-0.2364300	0.2951700	0.2020200	-0.2809500	0.1416200	0.2238900	-0.1856300	0.3819300	0.2003000	-0.0272300	0.3642400	0.2087500	0.0261600	0.1623100	0.2226800	-0.0390600
75	1.2333333	0.2623100	1.7975200	-0.1333300	0.2698400	1.8021800	0.0593500	0.2295500	1.5121300	0.1316800	0.3044300	1.2247500	0.1947600	0.2759700	1.7976700	-0.3176900	0.2036800	1.5118400	-0.3745000	0.2718600	1.2130600	-0.4286600	0.3039100	1.2691800	-0.1251800	0.2742900	1.2688100	-0.0094400	0.2208000	0.7817000	-0.0258200	0.1848400	0.2706300	-0.0302800	0.2989000	1.2704000	-0.2479900	0.2208400	0.7840900	-0.2077600	0.2018100	0.2802500	-0.2088000	0.3639400	0.1983600	-0.2361200	0.2951200	0.2055600	-0.2805600	0.1417600	0.2238800	-0.1855800	0.3819400	0.2003600	-0.0273000	0.3642300	0.2088500	0.0261300	0.1623200	0.2226900	-0.0390900
76	1.2500000	0.2623700	1.7938300	-0.1333400	0.2699500	1.8020800	0.0593400	0.2296600	1.5120400	0.1316600	0.3043400	1.2249300	0.1948000	0.2756300	1.7978300	-0.3175900	0.2150100	1.5075100	-0.3701000	0.2719500	1.2171800	-0.4288100	0.3046100	1.2693500	-0.1248400	0.2740700	1.2688000	-0.0094100	0.2095300	0.7806600	-0.0295400	0.1848000	0.2707200	-0.0303000	0.2990900	1.2704600	-0.2480200	0.2203400	0.7839500	-0.2080200	0.2015100	0.2800900	-0.2084900	0.3633000	0.1980600	-0.2363800	0.2952000	0.2020100	-0.2809400	0.1415400	0.2238300	-0.1856600	0.3819200	0.2002800	-0.0272400	0.3642500	0.2087300	0.0261500	0.1622400	0.2227000	-0.0390800
77	1.2666667	0.2623400	1.7975600	-0.1333300	0.2698500	1.8021700	0.0593500	0.2295500	1.5121800	0.1316800	0.3045500	1.2248800	0.1947500	0.2760400	1.7976900	-0.3177100	0.2034600	1.5080000	-0.3746400	0.2716200	1.2171300	-0.4287700	0.3038600	1.2691800	-0.1252200	0.2742700	1.2688600	-0.0094600	0.2091600	0.7804100	-0.0295400	0.1848100	0.2706300	-0.0302900	0.2988700	1.2703700	-0.2480200	0.2207500	0.7840600	-0.2077700	0.2018000	0.2801800	-0.2087900	0.3639900	0.1982300	-0.2361000	0.2952600	0.2017600	-0.2809400	0.1417300	0.2238700	-0.1856000	0.3819700	0.2003800	-0.0272900	0.3642500	0.2088600	0.0261500	0.1622900	0.2226900	-0.0391000
78	1.2833333	0.2627700	1.7976900	-0.1331400	0.2699600	1.8021000	0.0593500	0.2297100	1.5120700	0.1316600	0.3043800	1.2249600	0.1947900	0.2756700	1.7978800	-0.3175800	0.2044500	1.5118300	-0.3743800	0.2720300	1.2172500	-0.4288100	0.3045100	1.2693300	-0.1249100	0.2739900	1.2688200	-0.0094400	0.2212000	0.7817800	-0.0257800	0.1848100	0.2707100	-0.0303000	0.2990200	1.2704700	-0.2480800	0.2203100	0.7838100	-0.2080500	0.2015400	0.2801100	-0.2085000	0.3632000	0.1980500	-0.2363800	0.2951600	0.2020000	-0.2809400	0.1415800	0.2238800	-0.1856600	0.3819400	0.2002800	-0.0272500	0.3642700	0.2087300	0.0261400	0.1622600	0.2226700	-0.0390900
79	1.3000000	0.2736500	1.7963600	-0.1293800	0.2698500	1.8021900	0.0593700	0.2296700	1.5121500	0.1316700	0.3045400	1.2248800	0.1947600	0.2866200	1.7965100	-0.3217400	0.2037100	1.5118500	-0.3745300	0.2720100	1.2132200	-0.4287700	0.3039800	1.2691900	-0.1252600	0.2744300	1.2688300	-0.0094900	0.2091500	0.7804100	-0.0295400	0.1848100	0.2706300	-0.0303000	0.3091500	1.2704000	-0.2521500	0.2208400	0.7839600	-0.2078000	0.2018000	0.2801400	-0.2087900	0.3639500	0.1982300	-0.2360900	0.2952500	0.2017300	-0.2809300	0.1417100	0.2238900	-0.1856100	0.3819600	0.2003800	-0.0273000	0.3642800	0.2088700	0.0261400	0.1622900	0.2226800	-0.0391100
80	1.3166667	0.2633200	1.7938600	-0.1328500	0.2700200	1.8021000	0.0593400	0.2298400	1.5119300	0.1316800	0.3044300	1.2248300	0.1948000	0.2862000	1.7966100	-0.3216000	0.2043100	1.5117900	-0.3744400	0.2622800	1.2130500	-0.4331700	0.3050200	1.2653300	-0.1247600	0.2856800	1.2644200	-0.0057800	0.2092800	0.7806300	-0.0295300	0.1848200	0.2706900	-0.0303000	0.3097000	1.2661400	-0.2440000	0.2314600	0.7896300	-0.2040400	0.2124000	0.2822900	-0.2044700	0.3631300	0.1981100	-0.2364200	0.2951800	0.2019400	-0.2809600	0.1416300	0.2238800	-0.1856200	0.3819300	0.2003200	-0.0272600	0.3642900	0.2087900	0.0261400	0.1623000	0.2226700	-0.0390900
81	1.3333333	0.2741600	1.7925400	-0.1290800	0.2698600	1.8021700	0.0593800	0.2297900	1.5120300	0.1316800	0.3046000	1.2247800	0.1947700	0.2866600	1.7964500	-0.3217600	0.2036300	1.5118500	-0.3745900	0.2619600	1.2130300	-0.4331400	0.3044300	1.2651900	-0.1251100	0.2860200	1.2645000	-0.0058100	0.2207600	0.7816200	-0.0257400	0.1848500	0.2706100	-0.0302900	0.3197200	1.2661100	-0.2480800	0.2208800	0.7839600	-0.2077800	0.2126200	0.2824600	-0.2047500	0.3638500	0.1983700	-0.2361400	0.2952100	0.2017200	-0.2809700	0.1418000	0.2239300	-0.1855700	0.3819300	0.2004100	-0.0273100	0.3642900	0.2088800	0.0261400	0.1623400	0.2227000	-0.0391000
82	1.3500000	0.2745800	1.7926100	-0.1289100	0.2700700	1.8021400	0.0593400	0.2299200	1.5119700	0.1317100	0.3044500	1.2248400	0.1947900	0.2862600	1.7965700	-0.3216300	0.2043800	1.5118100	-0.3744300	0.2623100	1.2131000	-0.4331800	0.3051400	1.2653800	-0.1248000	0.2853000	1.2687300	-0.0058200	0.2094600	0.7806300	-0.0295300	0.1848700	0.2707000	-0.0303000	0.3199900	1.2662100	-0.2481500	0.2203900	0.7838300	-0.2080100	0.2123600	0.2824400	-0.2044900	0.3630600	0.1982600	-0.2364400	0.2951300	0.2019600	-0.2809600	0.1416300	0.2239100	-0.1856300	0.3818900	0.2003600	-0.0272500	0.3642800	0.2087900	0.0261500	0.1623300	0.2227100	-0.0390800
83	1.3666667	0.2737000	1.7964100	-0.1294000	0.2699200	1.8022300	0.0593600	0.2299000	1.5120400	0.1317000	0.3046400	1.2248600	0.1947600	0.2867300	1.7964400	-0.3217900	0.2036100	1.5118700	-0.3746100	0.2717300	1.2173100	-0.4288700	0.3044600	1.2652000	-0.1251400	0.2860000	1.2644900	-0.0058100	0.2091400	0.7804900	-0.0295100	0.1848600	0.2706000	-0.0302900	0.3096600	1.2660500	-0.2520700	0.2208500	0.7839600	-0.2077800	0.2126500	0.2824500	-0.2047500	0.3638100	0.1983500	-0.2361600	0.2951900	0.2017100	-0.2809800	0.1418000	0.2239200	-0.1855900	0.3818800	0.2004400	-0.0273100	0.3642700	0.2088800	0.0261400	0.1623300	0.2227200	-0.0391000
84	1.3833333	0.2741100	1.7964900	-0.1292000	0.2701000	1.8021100	0.0593300	0.2300400	1.5119300	0.1317400	0.3044900	1.2248800	0.1947900	0.2862500	1.7966700	-0.3216200	0.2044100	1.5118400	-0.3744600	0.2721500	1.2173000	-0.4288900	0.3049900	1.2653400	-0.1248200	0.2855700	1.2644500	-0.0058000	0.2211300	0.7773100	-0.0259500	0.1848200	0.2707000	-0.0303000	0.3098000	1.2661400	-0.2521200	0.2200500	0.7791500	-0.2081400	0.2124500	0.2824200	-0.2044800	0.3631100	0.1982000	-0.2364500	0.2951500	0.2019700	-0.2809700	0.1417000	0.2239100	-0.1856100	0.3818200	0.2003300	-0.0272800	0.3642200	0.2087600	0.0261400	0.1622300	0.2227300	-0.0390800
85	1.4000000	0.2738100	1.7964700	-0.1294100	0.2700000	1.8022300	0.0593300	0.2299400	1.5120800	0.1316200	0.3046000	1.2250100	0.1947800	0.2867400	1.7965500	-0.3217900	0.2033700	1.5080000	-0.3747600	0.2717100	1.2173100	-0.4288700	0.3044100	1.2652200	-0.1252300	0.2745000	1.2688200	-0.0095100	0.2091500	0.7759200	-0.0296800	0.1848400	0.2705900	-0.0302900	0.3096000	1.2660500	-0.2521200	0.2210400	0.7757800	-0.2078000	0.2126100	0.2824200	-0.2047500	0.3637500	0.1983800	-0.2360800	0.2950900	0.2016800	-0.2809000	0.1417700	0.2239000	-0.1856100	0.3817700	0.2003500	-0.0273100	0.3641700	0.2088300	0.0261500	0.1623500	0.2226700	-0.0391200
86	1.4166667	0.2742000	1.7965300	-0.1292200	0.2701900	1.8021900	0.0593100	0.2299700	1.5120100	0.1316600	0.3044800	1.2249900	0.1947900	0.2862800	1.7967000	-0.3216100	0.2041400	1.5079500	-0.3745600	0.2720700	1.2173900	-0.4288900	0.3050100	1.2654100	-0.1248900	0.2745700	1.2644300	-0.0094400	0.2092900	0.7761800	-0.0298000	0.1848300	0.2706600	-0.0303100	0.3098300	1.2661800	-0.2521500	0.2205700	0.7756200	-0.2080400	0.2123600	0.2823800	-0.2044900	0.3629000	0.1983200	-0.2363700	0.2949800	0.2019000	-0.2808800	0.1415700	0.2238700	-0.1856600	0.3817700	0.2002700	-0.0272600	0.3641600	0.2087200	0.0261700	0.1623300	0.2226600	-0.0391000
87	1.4333333	0.2738200	1.7964400	-0.1293900	0.2699800	1.8021900	0.0593400	0.2298500	1.5120800	0.1316300	0.3046000	1.2249600	0.1947600	0.2867600	1.7965100	-0.3218000	0.2033800	1.5079600	-0.3747700	0.2717000	1.2174200	-0.4288800	0.3045100	1.2652400	-0.1252200	0.2860900	1.2645200	-0.0058900	0.2091200	0.7760700	-0.0298000	0.1848400	0.2705700	-0.0303000	0.3096500	1.2660300	-0.2521400	0.2210800	0.7757600	-0.2078000	0.2125900	0.2824400	-0.2047300	0.3636900	0.1984200	-0.2360500	0.2950400	0.2016700	-0.2808800	0.1417400	0.2239200	-0.1856100	0.3817800	0.2003400	-0.0273100	0.3641600	0.2088200	0.0261600	0.1623700	0.2226700	-0.0391200
88	1.4500000	0.2742300	1.7965100	-0.1291900	0.2698200	1.8067800	0.0590500	0.2300300	1.5120700	0.1316600	0.3044300	1.2250800	0.1947900	0.2862600	1.7967100	-0.3216000	0.2041500	1.5079200	-0.3745900	0.2720800	1.2174900	-0.4289000	0.3050400	1.2654600	-0.1249200	0.2851900	1.2688700	-0.0059000	0.2212500	0.7818800	-0.0258800	0.1848400	0.2706600	-0.0303000	0.3094900	1.2703700	-0.2522700	0.2201500	0.7790100	-0.2081600	0.2124000	0.2824500	-0.2044900	0.3628900	0.1983600	-0.2363700	0.2949500	0.2018900	-0.2808900	0.1416600	0.2239200	-0.1856300	0.3818100	0.2002900	-0.0272400	0.3641900	0.2087300	0.0261800	0.1623600	0.2226100	-0.0391000
89	1.4666667	0.2739000	1.7964700	-0.1293600	0.2696600	1.8068300	0.0590800	0.2300200	1.5121100	0.1316400	0.3045800	1.2249900	0.1947600	0.2867500	1.7965500	-0.3217900	0.2034200	1.5079800	-0.3747700	0.2717100	1.2174900	-0.4288800	0.3045200	1.2652900	-0.1252400	0.2856900	1.2688700	-0.0059400	0.2092000	0.7805100	-0.0295800	0.1848700	0.2705500	-0.0303000	0.3093000	1.2702500	-0.2522200	0.2209200	0.7837300	-0.2078400	0.2125800	0.2823900	-0.2047300	0.3637200	0.1983600	-0.2360400	0.2950100	0.2016500	-0.2808900	0.1417200	0.2239000	-0.1856200	0.3818400	0.2003600	-0.0272900	0.3642000	0.2088200	0.0261700	0.1624200	0.2225900	-0.0391200
90	1.4833333	0.2742400	1.7965000	-0.1291800	0.2698400	1.8067800	0.0590500	0.2300800	1.5120600	0.1316900	0.3043800	1.2249800	0.1948100	0.2862900	1.7966900	-0.3216000	0.2041600	1.5079600	-0.3745700	0.2720300	1.2174500	-0.4288700	0.3050900	1.2654300	-0.1248700	0.2852800	1.2687800	-0.0058500	0.2093300	0.7805600	-0.0296300	0.1848500	0.2706400	-0.0303000	0.3098500	1.2662200	-0.2521700	0.2209200	0.7802800	-0.2078900	0.2123500	0.2823400	-0.2044900	0.3629900	0.1982300	-0.2363600	0.2950000	0.2018700	-0.2808900	0.1415600	0.2238600	-0.1856500	0.3818600	0.2002800	-0.0272500	0.3642300	0.2087500	0.0261600	0.1624000	0.2225800	-0.0391000
91	1.5000000	0.2738600	1.7964600	-0.1293700	0.2696700	1.8068500	0.0590700	0.2299500	1.5121300	0.1316200	0.3045600	1.2249100	0.1947900	0.2867600	1.7965700	-0.3217900	0.2035300	1.5080100	-0.3747000	0.2716500	1.2175300	-0.4288700	0.3045900	1.2652500	-0.1251400	0.2857700	1.2688000	-0.0058500	0.2092500	0.7804900	-0.0295900	0.1848800	0.2705600	-0.0303000	0.3092800	1.2702500	-0.2521400	0.2214200	0.7803300	-0.2076600	0.2125600	0.2824000	-0.2047000	0.3637600	0.1983100	-0.2360600	0.2950600	0.2016600	-0.2809000	0.1417300	0.2238800	-0.1855900	0.3819200	0.2003500	-0.0272900	0.3642400	0.2088400	0.0261600	0.1624200	0.2226000	-0.0391200
92	1.5166667	0.2742300	1.7965000	-0.1291800	0.2698500	1.8068400	0.0590300	0.2299700	1.5120800	0.1316800	0.3044300	1.2249500	0.1948100	0.2863400	1.7966600	-0.3215500	0.2040800	1.5079000	-0.3745900	0.2720300	1.2176100	-0.4288400	0.3050200	1.2654100	-0.1248800	0.2740800	1.2688100	-0.0094500	0.2093600	0.7760500	-0.0298500	0.1848000	0.2706300	-0.0303200	0.3095500	1.2703200	-0.2521900	0.2203700	0.7757100	-0.2079600	0.2123600	0.2824700	-0.2044800	0.3731100	0.2009000	-0.2323600	0.2951100	0.2019800	-0.2808500	0.1417300	0.2238800	-0.1855900	0.3819300	0.2004000	-0.0272100	0.3642500	0.2088200	0.0261800	0.1623300	0.2225700	-0.0391200
